<?xml version="1.0" encoding="iso-8859-1"?>
<!-- Uploaded to: SVG Repo, www.svgrepo.com, Generator: SVG Repo Mixer Tools -->
<svg height="24px" width="24px" version="1.1" id="Layer_1" xmlns="http://www.w3.org/2000/svg" xmlns:xlink="http://www.w3.org/1999/xlink" 
	 viewBox="0 0 512 512" xml:space="preserve">
<g transform="translate(1 1)">
	<path style="fill:#FFFFFF;" d="M127,41.667C127,60.44,111.64,75.8,92.867,75.8S58.733,60.44,58.733,41.667
		S74.093,7.533,92.867,7.533S127,22.893,127,41.667L127,41.667z"/>
	<path style="fill:#0096E6;" d="M92.867,84.333C68.973,84.333,50.2,65.56,50.2,41.667S68.973-1,92.867-1
		s42.667,18.773,42.667,42.667S116.76,84.333,92.867,84.333z M92.867,16.067c-14.507,0-25.6,11.093-25.6,25.6s11.093,25.6,25.6,25.6
		s25.6-11.093,25.6-25.6S107.373,16.067,92.867,16.067z"/>
	<path style="fill:#FFFFFF;" d="M451.267,41.667c0,18.773-15.36,34.133-34.133,34.133S383,60.44,383,41.667
		s15.36-34.133,34.133-34.133S451.267,22.893,451.267,41.667L451.267,41.667z"/>
	<path style="fill:#0096E6;" d="M417.133,84.333c-23.893,0-42.667-18.773-42.667-42.667S393.24-1,417.133-1
		C441.027-1,459.8,17.773,459.8,41.667S441.027,84.333,417.133,84.333z M417.133,16.067c-14.507,0-25.6,11.093-25.6,25.6
		s11.093,25.6,25.6,25.6c14.507,0,25.6-11.093,25.6-25.6S431.64,16.067,417.133,16.067z"/>
	<polygon style="fill:#D0E8F9;" points="7.533,178.2 502.467,178.2 502.467,229.4 7.533,229.4 	"/>
	<path style="fill:#0096E6;" d="M511,237.933H-1v-68.267h512V237.933z M16.067,220.867h477.867v-34.133H16.067V220.867z"/>
	<path style="fill:#FFFFFF;" d="M454.68,502.467H55.32c-17.067,0-30.72-13.653-30.72-30.72V229.4h460.8v242.347
		C485.4,488.813,471.747,502.467,454.68,502.467L454.68,502.467z"/>
	<g>
		<path style="fill:#0096E6;" d="M454.68,511H55.32c-22.187,0-39.253-17.067-39.253-39.253v-250.88h477.867v250.88
			C493.933,493.933,476.867,511,454.68,511z M33.133,237.933v233.813c0,11.947,10.24,22.187,22.187,22.187h400.213
			c11.947,0,22.187-10.24,22.187-22.187V237.933H33.133z"/>
		<path style="fill:#0096E6;" d="M425.667,459.8h-34.133c-5.12,0-8.533-3.413-8.533-8.533s3.413-8.533,8.533-8.533h34.133
			c5.12,0,8.533,3.413,8.533,8.533S430.787,459.8,425.667,459.8z M323.267,459.8h-34.133c-5.12,0-8.533-3.413-8.533-8.533
			s3.413-8.533,8.533-8.533h34.133c5.12,0,8.533,3.413,8.533,8.533S328.387,459.8,323.267,459.8z M220.867,459.8h-34.133
			c-5.12,0-8.533-3.413-8.533-8.533s3.413-8.533,8.533-8.533h34.133c5.12,0,8.533,3.413,8.533,8.533S225.987,459.8,220.867,459.8z
			 M118.467,459.8H84.333c-5.12,0-8.533-3.413-8.533-8.533s3.413-8.533,8.533-8.533h34.133c5.12,0,8.533,3.413,8.533,8.533
			S123.587,459.8,118.467,459.8z M425.667,425.667h-34.133c-5.12,0-8.533-3.413-8.533-8.533s3.413-8.533,8.533-8.533h34.133
			c5.12,0,8.533,3.413,8.533,8.533S430.787,425.667,425.667,425.667z M323.267,425.667h-34.133c-5.12,0-8.533-3.413-8.533-8.533
			s3.413-8.533,8.533-8.533h34.133c5.12,0,8.533,3.413,8.533,8.533S328.387,425.667,323.267,425.667z M220.867,425.667h-34.133
			c-5.12,0-8.533-3.413-8.533-8.533s3.413-8.533,8.533-8.533h34.133c5.12,0,8.533,3.413,8.533,8.533
			S225.987,425.667,220.867,425.667z M118.467,425.667H84.333c-5.12,0-8.533-3.413-8.533-8.533s3.413-8.533,8.533-8.533h34.133
			c5.12,0,8.533,3.413,8.533,8.533S123.587,425.667,118.467,425.667z M425.667,391.533h-34.133c-5.12,0-8.533-3.413-8.533-8.533
			c0-5.12,3.413-8.533,8.533-8.533h34.133c5.12,0,8.533,3.413,8.533,8.533C434.2,388.12,430.787,391.533,425.667,391.533z
			 M323.267,391.533h-34.133c-5.12,0-8.533-3.413-8.533-8.533c0-5.12,3.413-8.533,8.533-8.533h34.133
			c5.12,0,8.533,3.413,8.533,8.533C331.8,388.12,328.387,391.533,323.267,391.533z M220.867,391.533h-34.133
			c-5.12,0-8.533-3.413-8.533-8.533c0-5.12,3.413-8.533,8.533-8.533h34.133c5.12,0,8.533,3.413,8.533,8.533
			C229.4,388.12,225.987,391.533,220.867,391.533z M118.467,391.533H84.333c-5.12,0-8.533-3.413-8.533-8.533
			c0-5.12,3.413-8.533,8.533-8.533h34.133c5.12,0,8.533,3.413,8.533,8.533C127,388.12,123.587,391.533,118.467,391.533z
			 M425.667,357.4h-34.133c-5.12,0-8.533-3.413-8.533-8.533c0-5.12,3.413-8.533,8.533-8.533h34.133c5.12,0,8.533,3.413,8.533,8.533
			C434.2,353.987,430.787,357.4,425.667,357.4z M323.267,357.4h-34.133c-5.12,0-8.533-3.413-8.533-8.533
			c0-5.12,3.413-8.533,8.533-8.533h34.133c5.12,0,8.533,3.413,8.533,8.533C331.8,353.987,328.387,357.4,323.267,357.4z
			 M220.867,357.4h-34.133c-5.12,0-8.533-3.413-8.533-8.533c0-5.12,3.413-8.533,8.533-8.533h34.133c5.12,0,8.533,3.413,8.533,8.533
			C229.4,353.987,225.987,357.4,220.867,357.4z M118.467,357.4H84.333c-5.12,0-8.533-3.413-8.533-8.533
			c0-5.12,3.413-8.533,8.533-8.533h34.133c5.12,0,8.533,3.413,8.533,8.533C127,353.987,123.587,357.4,118.467,357.4z
			 M425.667,323.267h-34.133c-5.12,0-8.533-3.413-8.533-8.533c0-5.12,3.413-8.533,8.533-8.533h34.133
			c5.12,0,8.533,3.413,8.533,8.533C434.2,319.853,430.787,323.267,425.667,323.267z M323.267,323.267h-34.133
			c-5.12,0-8.533-3.413-8.533-8.533c0-5.12,3.413-8.533,8.533-8.533h34.133c5.12,0,8.533,3.413,8.533,8.533
			C331.8,319.853,328.387,323.267,323.267,323.267z M220.867,323.267h-34.133c-5.12,0-8.533-3.413-8.533-8.533
			c0-5.12,3.413-8.533,8.533-8.533h34.133c5.12,0,8.533,3.413,8.533,8.533C229.4,319.853,225.987,323.267,220.867,323.267z
			 M118.467,323.267H84.333c-5.12,0-8.533-3.413-8.533-8.533c0-5.12,3.413-8.533,8.533-8.533h34.133c5.12,0,8.533,3.413,8.533,8.533
			C127,319.853,123.587,323.267,118.467,323.267z M425.667,289.133h-34.133c-5.12,0-8.533-3.413-8.533-8.533
			c0-5.12,3.413-8.533,8.533-8.533h34.133c5.12,0,8.533,3.413,8.533,8.533S430.787,289.133,425.667,289.133z M323.267,289.133
			h-34.133c-5.12,0-8.533-3.413-8.533-8.533c0-5.12,3.413-8.533,8.533-8.533h34.133c5.12,0,8.533,3.413,8.533,8.533
			S328.387,289.133,323.267,289.133z M220.867,289.133h-34.133c-5.12,0-8.533-3.413-8.533-8.533c0-5.12,3.413-8.533,8.533-8.533
			h34.133c5.12,0,8.533,3.413,8.533,8.533S225.987,289.133,220.867,289.133z M118.467,289.133H84.333
			c-5.12,0-8.533-3.413-8.533-8.533c0-5.12,3.413-8.533,8.533-8.533h34.133c5.12,0,8.533,3.413,8.533,8.533
			S123.587,289.133,118.467,289.133z M255,212.333c-2.56,0-4.267-0.853-5.973-2.56L86.04,46.787c-3.413-3.413-3.413-8.533,0-11.947
			s8.533-3.413,11.947,0L255,191.853L412.013,34.84c3.413-3.413,8.533-3.413,11.947,0c3.413,3.413,3.413,8.533,0,11.947
			L260.973,209.773C259.267,211.48,257.56,212.333,255,212.333z"/>
	</g>
</g>
</svg>