<?xml version="1.0" encoding="iso-8859-1"?>
<!-- Uploaded to: SVG Repo, www.svgrepo.com, Generator: SVG Repo Mixer Tools -->
<svg height="24px" width="24px" version="1.1" id="Layer_1" xmlns="http://www.w3.org/2000/svg" xmlns:xlink="http://www.w3.org/1999/xlink" 
	 viewBox="0 0 512 512" xml:space="preserve">
<g transform="translate(1 1)">
	<g>
		<path style="fill:#FFE100;" d="M459.8,246.467c-5.12,0-8.533-3.413-8.533-8.533c0-5.12,0-11.093-0.853-16.213
			c0-5.12,3.413-8.533,7.68-9.387c4.267,0,8.533,3.413,9.387,7.68c0.853,5.973,0.853,11.947,0.853,17.92
			C468.333,243.053,464.92,246.467,459.8,246.467z"/>
		<path style="fill:#FFE100;" d="M454.68,200.387c-4.267,0-7.68-2.56-8.533-6.827c-1.707-5.973-3.413-11.947-5.12-17.92
			c-1.707-4.267,0.853-9.387,5.12-11.093c4.267-1.707,9.387,0.853,11.093,5.12c1.707,6.827,4.267,12.8,5.12,19.627
			c0.853,4.267-1.707,9.387-6.827,10.24C456.387,200.387,455.533,200.387,454.68,200.387z M438.467,153.453
			c-3.413,0-5.973-1.707-7.68-5.12c-2.56-5.973-5.973-11.093-9.387-16.213c-2.56-4.267-1.707-9.387,2.56-11.947
			c4.267-2.56,9.387-1.707,11.947,2.56c3.413,5.973,6.827,11.947,10.24,17.92c1.707,4.267,0,9.387-3.413,11.093
			C441.027,153.453,440.173,153.453,438.467,153.453z"/>
		<path style="fill:#FFE100;" d="M411.16,113.347c-2.56,0-4.267-0.853-5.973-2.56c-4.267-4.267-8.533-9.387-13.653-13.653
			c-3.413-3.413-3.413-8.533-0.853-11.947c3.413-3.413,8.533-3.413,11.947-0.853c5.12,4.267,10.24,9.387,14.507,14.507
			c3.413,3.413,2.56,8.533-0.853,11.947C414.573,112.493,412.867,113.347,411.16,113.347z M373.613,80.92
			c-1.707,0-3.413-0.853-4.267-1.707c-5.12-3.413-11.093-6.827-16.213-9.387c-5.12-1.707-6.827-6.827-4.267-11.093
			c2.56-4.267,6.827-5.973,11.093-3.413c5.973,3.413,11.947,6.827,17.92,10.24c4.267,2.56,5.12,7.68,2.56,11.947
			C378.733,80.067,376.173,80.92,373.613,80.92z M329.24,60.44c-0.853,0-1.707,0-2.56,0c-5.973-1.707-11.947-3.413-17.92-5.12
			c-4.267-0.853-7.68-5.973-6.827-10.24c0.853-4.267,5.12-7.68,10.24-6.827c5.973,1.707,12.8,3.413,19.627,5.12
			c4.267,1.707,6.827,5.973,5.12,11.093C336.067,57.88,332.653,60.44,329.24,60.44z"/>
		<path style="fill:#FFE100;" d="M280.6,51.053L280.6,51.053c-5.973-0.853-11.947-0.853-17.067-0.853
			c-5.12,0-8.533-3.413-8.533-8.533s3.413-8.533,8.533-8.533c5.973,0,11.947,0,17.92,0.853c5.12,0,8.533,4.267,7.68,9.387
			C289.133,47.64,284.867,51.053,280.6,51.053z"/>
		<path style="fill:#FFE100;" d="M459.8,246.467c-2.56,0-4.267-0.853-5.973-2.56c-3.413-3.413-3.413-8.533,0-11.947l34.133-34.133
			c3.413-3.413,8.533-3.413,11.947,0c3.413,3.413,3.413,8.533,0,11.947l-34.133,34.133
			C464.067,245.613,462.36,246.467,459.8,246.467z"/>
		<path style="fill:#FFE100;" d="M459.8,246.467c-2.56,0-4.267-0.853-5.973-2.56l-34.133-34.133c-3.413-3.413-3.413-8.533,0-11.947
			c3.413-3.413,8.533-3.413,11.947,0l34.133,34.133c3.413,3.413,3.413,8.533,0,11.947C464.067,245.613,462.36,246.467,459.8,246.467
			z"/>
		<path style="fill:#FFE100;" d="M16.067,297.667c-2.56,0-4.267-0.853-5.973-2.56c-3.413-3.413-3.413-8.533,0-11.947l34.133-34.133
			c3.413-3.413,8.533-3.413,11.947,0s3.413,8.533,0,11.947L22.04,295.107C20.333,296.813,18.627,297.667,16.067,297.667z"/>
		<path style="fill:#FFE100;" d="M84.333,297.667c-2.56,0-4.267-0.853-5.973-2.56l-34.133-34.133c-3.413-3.413-3.413-8.533,0-11.947
			s8.533-3.413,11.947,0l34.133,34.133c3.413,3.413,3.413,8.533,0,11.947C88.6,296.813,86.893,297.667,84.333,297.667z"/>
		<path style="fill:#FFE100;" d="M51.053,280.6c-4.267,0-8.533-3.413-8.533-7.68c-0.853-5.973-0.853-11.947-0.853-17.92
			c0-5.12,3.413-8.533,8.533-8.533s8.533,3.413,8.533,8.533c0,5.973,0,11.093,0.853,16.213
			C59.587,276.333,56.173,280.6,51.053,280.6L51.053,280.6z"/>
		<path style="fill:#FFE100;" d="M80.92,373.613c-2.56,0-5.973-1.707-6.827-4.267c-3.413-5.973-6.827-11.947-10.24-17.92
			c-1.707-4.267,0-9.387,3.413-11.093c4.267-1.707,9.387,0,11.093,3.413c2.56,5.973,5.973,11.093,9.387,16.213
			c2.56,4.267,1.707,9.387-2.56,11.947C84.333,372.76,82.627,373.613,80.92,373.613z M60.44,329.24c-3.413,0-6.827-2.56-8.533-5.973
			c-1.707-6.827-4.267-12.8-5.12-19.627c-0.853-4.267,1.707-9.387,6.827-10.24c4.267-0.853,9.387,1.707,10.24,6.827
			c1.707,5.973,3.413,11.947,5.12,17.92c1.707,4.267-0.853,9.387-5.12,11.093C62.147,328.387,61.293,329.24,60.44,329.24z"/>
		<path style="fill:#FFE100;" d="M200.387,454.68c-0.853,0-0.853,0-1.707,0c-6.827-1.707-13.653-3.413-19.627-5.12
			c-4.267-1.707-6.827-5.973-5.12-11.093c1.707-4.267,5.973-6.827,11.093-5.12c5.973,1.707,11.947,3.413,17.92,5.12
			c4.267,0.853,7.68,5.973,6.827,10.24C207.213,452.12,203.8,454.68,200.387,454.68z M153.453,438.467c-1.707,0-2.56,0-3.413-0.853
			c-5.973-3.413-11.947-6.827-17.92-10.24c-4.267-2.56-5.12-7.68-2.56-11.947c2.56-4.267,7.68-5.12,11.947-2.56
			c5.12,3.413,11.093,6.827,16.213,9.387c4.267,1.707,5.973,6.827,3.413,11.093C159.427,436.76,156.867,438.467,153.453,438.467z
			 M113.347,411.16c-1.707,0-4.267-0.853-5.973-2.56c-5.12-4.267-10.24-9.387-14.507-14.507c-3.413-3.413-2.56-8.533,0.853-11.947
			c3.413-3.413,8.533-2.56,11.947,0.853c4.267,4.267,8.533,9.387,13.653,13.653c3.413,3.413,3.413,8.533,0.853,11.947
			C117.613,410.307,115.053,411.16,113.347,411.16z"/>
		<path style="fill:#FFE100;" d="M246.467,459.8c-5.973,0-11.947,0-17.92-0.853c-5.12,0-8.533-4.267-7.68-9.387
			c0-5.12,4.267-8.533,9.387-7.68c5.12,0,11.093,0.853,16.213,0.853c5.12,0,8.533,3.413,8.533,8.533S251.587,459.8,246.467,459.8z"
			/>
		<path style="fill:#FFE100;" d="M229.4,118.467c0,61.44-49.493,110.933-110.933,110.933S7.533,179.907,7.533,118.467
			S57.027,7.533,118.467,7.533S229.4,57.027,229.4,118.467"/>
		<path style="fill:#FFE100;" d="M502.467,391.533c0,61.44-49.493,110.933-110.933,110.933S280.6,452.973,280.6,391.533
			S330.093,280.6,391.533,280.6S502.467,330.093,502.467,391.533"/>
	</g>
	<path style="fill:#FFA800;" d="M391.533,280.6c-4.267,0-8.533,0-12.8,0.853c55.467,5.973,98.133,52.907,98.133,110.08
		S434.2,495.64,378.733,501.613c4.267,0.853,8.533,0.853,12.8,0.853c61.44,0,110.933-49.493,110.933-110.933
		S452.973,280.6,391.533,280.6"/>
	<path style="fill:#FFFFFF;" d="M118.467,7.533c4.267,0,8.533,0,12.8,0.853C75.8,14.36,33.133,61.293,33.133,118.467
		s42.667,104.107,98.133,110.08c-4.267,0.853-8.533,0.853-12.8,0.853c-61.44,0-110.933-49.493-110.933-110.933
		S57.027,7.533,118.467,7.533"/>
	<path style="fill:#63D3FD;" d="M418.84,461.507c-4.267-1.707-6.827-5.973-6.827-11.093v-12.8c0.853-0.853,1.707-2.56,3.413-4.267
		c4.267-5.973,7.68-12.8,10.24-19.627c4.267-0.853,6.827-5.12,6.827-9.387v-12.8c0-2.56-1.707-5.973-3.413-7.68v-19.627
		c0,0,4.267-29.867-36.693-29.867s-36.693,29.867-36.693,29.867v19.627c-1.707,1.707-3.413,4.267-3.413,7.68v13.653
		c0,3.413,1.707,6.827,4.267,8.533c3.413,14.507,11.947,24.747,11.947,24.747v11.947c0,4.267-2.56,8.533-5.973,11.093l-30.72,15.36
		c-1.707,0.853-4.267,2.56-5.12,4.267c17.92,13.653,40.96,21.333,64.853,21.333s46.933-7.68,64.853-21.333
		c-1.707-1.707-3.413-2.56-5.973-4.267L418.84,461.507z"/>
	<path d="M451.267,246.467c-5.12,0-8.533-3.413-8.533-8.533c0-5.12,0-11.093-0.853-16.213c0-5.12,3.413-8.533,7.68-9.387
		c4.267,0,8.533,3.413,9.387,7.68c0.853,5.973,0.853,11.947,0.853,17.92C459.8,243.053,456.387,246.467,451.267,246.467z"/>
	<path d="M446.147,200.387c-4.267,0-7.68-2.56-8.533-6.827c-1.707-5.973-3.413-11.947-5.12-17.92
		c-1.707-4.267,0.853-9.387,5.12-11.093c4.267-1.707,9.387,0.853,11.093,5.12c1.707,6.827,4.267,12.8,5.12,19.627
		c0.853,4.267-1.707,9.387-6.827,10.24C447.853,200.387,447,200.387,446.147,200.387z M429.933,153.453
		c-3.413,0-5.973-1.707-7.68-5.12c-2.56-5.973-5.973-11.093-9.387-16.213c-2.56-4.267-1.707-9.387,2.56-11.947
		c4.267-2.56,9.387-1.707,11.947,2.56c3.413,5.973,6.827,11.947,10.24,17.92c1.707,4.267,0,9.387-3.413,11.093
		C432.493,153.453,431.64,153.453,429.933,153.453z"/>
	<path d="M402.627,113.347c-2.56,0-4.267-0.853-5.973-2.56c-4.267-4.267-8.533-9.387-13.653-13.653
		c-3.413-3.413-3.413-8.533-0.853-11.947c3.413-3.413,8.533-3.413,11.947-0.853c5.12,4.267,10.24,9.387,14.507,14.507
		c3.413,3.413,2.56,8.533-0.853,11.947C406.04,112.493,404.333,113.347,402.627,113.347z M365.08,80.92
		c-1.707,0-3.413-0.853-4.267-1.707c-5.12-3.413-11.093-6.827-16.213-9.387c-5.12-1.707-6.827-6.827-4.267-11.093
		s6.827-5.973,11.093-3.413c5.973,3.413,11.947,6.827,17.92,10.24c4.267,2.56,5.12,7.68,2.56,11.947
		C370.2,80.067,367.64,80.92,365.08,80.92z M320.707,60.44c-0.853,0-1.707,0-2.56,0c-5.973-1.707-11.947-3.413-17.92-5.12
		c-4.267-0.853-7.68-5.973-6.827-10.24c0.853-4.267,5.973-7.68,10.24-6.827c5.973,1.707,12.8,3.413,19.627,5.12
		c4.267,1.707,6.827,5.973,5.12,11.093C327.533,57.88,324.12,60.44,320.707,60.44z"/>
	<path d="M272.067,51.053L272.067,51.053C266.093,50.2,260.12,50.2,255,50.2s-8.533-3.413-8.533-8.533s3.413-8.533,8.533-8.533
		c5.973,0,11.947,0,17.92,0.853c5.12,0,8.533,4.267,7.68,9.387C280.6,47.64,276.333,51.053,272.067,51.053z"/>
	<path d="M42.52,280.6c-4.267,0-8.533-3.413-8.533-7.68c-0.853-5.973-0.853-11.947-0.853-17.92c0-5.12,3.413-8.533,8.533-8.533
		S50.2,249.88,50.2,255c0,5.973,0,11.093,0.853,16.213C51.053,276.333,47.64,280.6,42.52,280.6L42.52,280.6z"/>
	<path d="M72.387,373.613c-2.56,0-5.973-1.707-6.827-4.267c-3.413-5.973-6.827-11.947-10.24-17.92
		c-1.707-4.267,0-9.387,3.413-11.093c4.267-1.707,9.387,0,11.093,3.413c2.56,5.973,5.973,11.093,9.387,16.213
		c2.56,4.267,1.707,9.387-2.56,11.947C75.8,372.76,74.093,373.613,72.387,373.613z M51.907,329.24c-3.413,0-6.827-2.56-8.533-5.973
		c-1.707-6.827-4.267-12.8-5.12-19.627c-0.853-4.267,1.707-9.387,6.827-10.24c4.267-0.853,9.387,1.707,10.24,6.827
		c1.707,5.973,3.413,11.947,5.12,17.92c1.707,4.267-0.853,9.387-5.12,11.093C53.613,328.387,52.76,329.24,51.907,329.24z"/>
	<path d="M191.853,454.68c-0.853,0-0.853,0-1.707,0c-6.827-1.707-13.653-3.413-19.627-5.12c-4.267-1.707-6.827-5.973-5.12-11.093
		c1.707-5.12,5.973-6.827,11.093-5.12c5.973,1.707,11.947,3.413,17.92,5.12c4.267,0.853,7.68,5.973,6.827,10.24
		C198.68,452.12,195.267,454.68,191.853,454.68z M144.92,438.467c-1.707,0-2.56,0-3.413-0.853
		c-5.973-3.413-11.947-6.827-17.92-10.24c-4.267-2.56-5.12-7.68-2.56-11.947c2.56-4.267,7.68-5.12,11.947-2.56
		c5.12,3.413,11.093,6.827,16.213,9.387c4.267,1.707,5.973,6.827,3.413,11.093C150.893,436.76,148.333,438.467,144.92,438.467z
		 M104.813,411.16c-1.707,0-4.267-0.853-5.973-2.56c-5.12-4.267-10.24-9.387-14.507-14.507c-3.413-3.413-2.56-8.533,0.853-11.947
		c3.413-3.413,8.533-2.56,11.947,0.853c4.267,4.267,8.533,9.387,13.653,13.653c3.413,3.413,3.413,8.533,0.853,11.947
		C109.08,410.307,106.52,411.16,104.813,411.16z"/>
	<path d="M237.933,459.8c-5.973,0-11.947,0-17.92-0.853c-5.12,0-8.533-4.267-7.68-9.387c0-5.12,4.267-8.533,9.387-7.68
		c5.12,0,11.093,0.853,16.213,0.853c5.12,0,8.533,3.413,8.533,8.533S243.053,459.8,237.933,459.8z"/>
	<path d="M118.467,237.933C52.76,237.933-1,184.173-1,118.467S52.76-1,118.467-1s119.467,53.76,119.467,119.467
		S184.173,237.933,118.467,237.933z M118.467,16.067c-56.32,0-102.4,46.08-102.4,102.4s46.08,102.4,102.4,102.4
		s102.4-46.08,102.4-102.4S174.787,16.067,118.467,16.067z"/>
	<path d="M118.467,187.587c-23.893,0-42.667-18.773-42.667-42.667c0-5.12,3.413-8.533,8.533-8.533s8.533,3.413,8.533,8.533
		c0,14.507,11.093,25.6,25.6,25.6c7.68,0,14.507-3.413,19.627-9.387c2.56-2.56,3.413-5.973,2.56-9.387
		c0-3.413-2.56-6.827-5.12-9.387L91.16,107.373c-6.827-4.267-11.093-12.8-11.947-20.48C78.36,78.36,80.92,70.68,86.04,64.707
		c8.533-9.387,19.627-15.36,32.427-15.36c23.893,0,42.667,18.773,42.667,42.667c0,5.12-3.413,8.533-8.533,8.533
		c-5.12,0-8.533-3.413-8.533-8.533c0-14.507-11.093-25.6-25.6-25.6c-7.68,0-14.507,3.413-19.627,9.387
		c-2.56,2.56-3.413,5.973-2.56,9.387c0,3.413,2.56,6.827,5.12,9.387l44.373,34.987c6.827,5.12,11.093,12.8,11.947,21.333
		c0.853,8.533-1.707,16.213-6.827,22.187C143.213,182.467,131.267,187.587,118.467,187.587z"/>
	<path d="M118.467,203.8c-5.12,0-8.533-3.413-8.533-8.533v-153.6c0-5.12,3.413-8.533,8.533-8.533S127,36.547,127,41.667v153.6
		C127,200.387,123.587,203.8,118.467,203.8z"/>
	<path d="M391.533,511c-65.707,0-119.467-53.76-119.467-119.467s53.76-119.467,119.467-119.467S511,325.827,511,391.533
		S457.24,511,391.533,511z M391.533,289.133c-56.32,0-102.4,46.08-102.4,102.4s46.08,102.4,102.4,102.4s102.4-46.08,102.4-102.4
		S447.853,289.133,391.533,289.133z"/>
	<path d="M391.533,511c-25.6,0-49.493-7.68-69.973-23.04l-8.533-5.973l7.68-6.827c2.56-2.56,5.12-4.267,7.68-5.12l29.867-16.213
		c0.853-0.853,1.707-1.707,1.707-3.413v-9.387c-2.56-4.267-8.533-12.8-11.093-23.04c-3.413-3.413-5.973-8.533-5.973-13.653v-12.8
		c0-3.413,0.853-7.68,3.413-10.24v-15.36c0-3.413-0.853-15.36,8.533-25.6c7.68-9.387,20.48-13.653,36.693-13.653
		c17.067,0,29.013,4.267,36.693,13.653c9.387,10.24,8.533,22.187,8.533,25.6v15.36c2.56,3.413,3.413,6.827,3.413,10.24v13.653
		c0,6.827-3.413,12.8-8.533,15.36c-2.56,6.827-5.973,12.8-10.24,18.773c-0.853,0.853-0.853,1.707-1.707,1.707v9.387
		c0,1.707,0.853,2.56,1.707,3.413l31.573,16.213c2.56,1.707,5.12,3.413,7.68,5.12l7.68,6.827l-8.533,5.973
		C441.027,503.32,417.133,511,391.533,511z M342.893,481.133c29.867,16.213,67.413,16.213,97.28,0l-24.747-12.8
		c-6.827-3.413-11.093-10.24-11.093-18.773V434.2l1.707-2.56c0.853-0.853,1.707-1.707,2.56-3.413
		c3.413-5.12,6.827-11.093,8.533-17.92l1.707-4.267l4.267-1.707c0.853,0,0.853-0.853,0.853-1.707v-11.093
		c0-0.853,0-0.853-0.853-0.853l-2.56-2.56v-23.893c0,0,0.853-7.68-4.267-12.8c-4.267-5.12-12.8-7.68-23.893-7.68
		c-11.093,0-19.627,2.56-23.893,7.68c-5.12,5.12-4.267,12.8-4.267,12.8v0.853v23.04l-2.56,2.56l-0.853,0.853v13.653
		c0,0.853,0.853,0.853,0.853,0.853l2.56,1.707l0.853,3.413c2.56,11.947,10.24,21.333,10.24,21.333l1.707,2.56v15.36
		c0,7.68-4.267,14.507-11.093,17.92L342.893,481.133z"/>
	<path d="M451.267,246.467c-2.56,0-4.267-0.853-5.973-2.56c-3.413-3.413-3.413-8.533,0-11.947l34.133-34.133
		c3.413-3.413,8.533-3.413,11.947,0c3.413,3.413,3.413,8.533,0,11.947l-34.133,34.133
		C455.533,245.613,453.827,246.467,451.267,246.467z"/>
	<path d="M451.267,246.467c-2.56,0-4.267-0.853-5.973-2.56l-34.133-34.133c-3.413-3.413-3.413-8.533,0-11.947
		c3.413-3.413,8.533-3.413,11.947,0l34.133,34.133c3.413,3.413,3.413,8.533,0,11.947
		C455.533,245.613,453.827,246.467,451.267,246.467z"/>
	<path d="M7.533,297.667c-2.56,0-4.267-0.853-5.973-2.56c-3.413-3.413-3.413-8.533,0-11.947l34.133-34.133
		c3.413-3.413,8.533-3.413,11.947,0s3.413,8.533,0,11.947l-34.133,34.133C11.8,296.813,10.093,297.667,7.533,297.667z"/>
	<path d="M75.8,297.667c-2.56,0-4.267-0.853-5.973-2.56l-34.133-34.133c-3.413-3.413-3.413-8.533,0-11.947s8.533-3.413,11.947,0
		l34.133,34.133c3.413,3.413,3.413,8.533,0,11.947C80.067,296.813,78.36,297.667,75.8,297.667z"/>
</g>
</svg>